# xmcd
#
# Track frame offsets:
#	150
#	13397
#	34997
#	53165
#	69540
#	98345
#	111182
#	130917
#	159340
#	184160
#	198682
#	209782
#	222697
#	237462
#	254990
#	269807
#	286450
#
# Disc length: 4076 seconds
#
# Revision: 3
# Processed by: cddbd v1.5.1PL2 Copyright (c) Steve Scherf et al.
# Submitted via: audiograbber 1.83.01
#
DISCID=200fea11
DTITLE=Various Artist - Red Hot and Country
DYEAR=1994
DGENRE=Country
TTITLE0=Suzy Boguss, Alison Kraus, Kathy Mattea with CS&N - Teach Your Children
TTITLE1=Sammy Kershaw - Fire and Rain
TTITLE2=Brooks and Dunn with Johnny Cash - Folsom Prison Blues
TTITLE3=Kathy Mattea with Jackson Brown - Rock Me On The Water
TTITLE4=Carl Perkins, Duanne Eddy and The Mavericks - Matchbox
TTITLE5=Jimmie Dale Gilmore with Willy Nelson - Crazy
TTITLE6=Mary Chapin Carpenter - Willie Short
TTITLE7=Johnny Cash - Forever Young
TTITLE8=Nanci Griffith with Jimmy Webb - I f These Old Walls Could Speak
TTITLE9=Marty Stuart with Jerry and Tammy Sullivan - Up Above My Head
TTITLE10=Dolly Parton - You Gotta Be My Baby
TTITLE11=Radney Foster - Close Up The Honky Tonks
TTITLE12=Mark Chestnut - Goodbye Comes Hard For Me
TTITLE13=Billy Ray Cyrus - Pictures Don't Lie
TTITLE14=Patty Loveless - When I Reach The Place I'm Going
TTITLE15=Wilco with Syd Straw - The T.B. is Whipping Me
TTITLE16=Randy Scruggs with Earl Scruggs and Doc Watson - Keep On The Sunny Side
EXTD=
EXTT0=
EXTT1=
EXTT2=
EXTT3=
EXTT4=
EXTT5=
EXTT6=
EXTT7=
EXTT8=
EXTT9=
EXTT10=
EXTT11=
EXTT12=
EXTT13=
EXTT14=
EXTT15=
EXTT16=
PLAYORDER=
